Coordinates
version=1
nRows=9
nColumns=24
inDegrees=yes

Units are S.I. units (second, meters, Newtons, ...)
Angles are in degrees.

endheader
time	pelvis_tilt	pelvis_list	pelvis_rotation	pelvis_tx	pelvis_ty	pelvis_tz	hip_flexion_r	hip_adduction_r	hip_rotation_r	knee_angle_r	ankle_angle_r	subtalar_angle_r	mtp_angle_r	hip_flexion_l	hip_adduction_l	hip_rotation_l	knee_angle_l	ankle_angle_l	subtalar_angle_l	mtp_angle_l	lumbar_extension	lumbar_bending	lumbar_rotation
      0.43000000	     -4.19971966	      6.60889121	     -3.46516472	     -0.80029869	      1.02613018	      0.25528642	     33.18615345	     -2.92658715	      0.74505510	    -11.27160617	      5.75203505	     -0.64638323	      1.32606184	    -12.15741880	      9.21673826	      0.68684315	     -9.86830916	     20.63651842	      9.03718379	      0.95883414	    -10.37425242	     -7.26935516	     -2.84453558
      0.43416667	     -4.28737788	      6.50706463	     -3.33046543	     -0.79378177	      1.02534927	      0.25543304	     33.29040028	     -2.81201457	      0.86883880	    -11.95173700	      5.29757617	     -1.27962246	      1.75271205	    -12.07058101	      9.04752779	      0.57269133	    -10.68076206	     20.75842494	      9.37367003	      1.10640354	    -10.17112368	     -7.06216689	     -2.77086002
      0.43833333	     -4.28923974	      6.36800894	     -3.28986581	     -0.78727910	      1.02466524	      0.25568492	     33.36146772	     -2.63295204	      0.97242972	    -12.77725869	      5.06273377	     -1.50342678	      1.86425797	    -12.12471764	      8.88217954	      0.54539303	    -11.37960956	     20.75051929	      9.43866883	      1.15339227	    -10.21091482	     -6.75638164	     -2.74861960
      0.44250000	     -4.40318424	      6.24584503	     -3.16334366	     -0.78073312	      1.02393339	      0.25587306	     33.45772136	     -2.48403060	      1.27172693	    -13.42431297	      4.42529840	     -2.31484620	      2.32759682	    -11.94724083	      8.66078059	      0.19993138	    -12.31614089	     20.87082520	     10.25527890	      1.39243089	     -9.97433095	     -6.46944597	     -2.76748388
      0.44666667	     -4.36770429	      6.09869850	     -3.10917857	     -0.77420273	      1.02340629	      0.25610965	     33.50041530	     -2.32039968	      1.30816892	    -14.32113649	      4.21513689	     -2.50677631	      2.40476265	    -11.99350195	      8.47681790	      0.14907746	    -13.11576000	     20.81405486	     10.26963368	      1.43895741	    -10.01685206	     -6.16344305	     -2.73301609
      0.45083333	     -4.46132428	      5.95627020	     -2.97653226	     -0.76761487	      1.02282516	      0.25630406	     33.58786576	     -2.16791723	      1.51148678	    -15.03878922	      3.59361339	     -3.20641768	      2.80078985	    -11.78621603	      8.21608941	     -0.26837966	    -14.15148918	     20.83637637	     11.15956779	      1.73033785	     -9.81959063	     -5.87546108	     -2.73194696
      0.45500000	     -4.47745400	      5.79725941	     -2.89967619	     -0.76105607	      1.02235298	      0.25656734	     33.64988302	     -1.99038481	      1.64433333	    -15.88709408	      3.21706152	     -3.67307505	      3.25154576	    -11.67281647	      7.95794270	     -0.65088195	    -15.15597231	     20.76831094	     11.79415091	      2.11301987	     -9.76410676	     -5.56669363	     -2.71376017
      0.45916667	     -4.43392520	      5.63454306	     -2.81520584	     -0.75445784	      1.02202216	      0.25675739	     33.67290588	     -1.84355016	      1.60554844	    -16.80762914	      2.95147665	     -3.91909092	      3.40068230	    -11.63006208	      7.72614754	     -0.80325883	    -16.15181455	     20.62526022	     11.91961424	      2.26633949	     -9.71845320	     -5.27164326	     -2.67780922
      0.46333333	     -4.42376110	      5.47350896	     -2.73640130	     -0.74791140	      1.02170548	      0.25695841	     33.73278805	     -1.68854957	      1.65615530	    -17.73408898	      2.73215048	     -4.09508665	      3.45638886	    -11.53232822	      7.50325628	     -0.86218642	    -17.16543179	     20.42695503	     12.02246787	      2.33637149	     -9.80444320	     -4.90484339	     -2.63854993
